<?xml version="1.0" encoding="UTF-8" standalone="no"?>
<!-- Created with Inkscape (http://www.inkscape.org/) -->

<svg
   version="1.1"
   id="svg1"
   width="5433.8599"
   height="3840.1333"
   viewBox="0 0 5433.8598 3840.1333"
   sodipodi:docname="Mach-One-Logo_TEXT-BOTTOM_BLACK-COLOR.svg"
   inkscape:version="1.3.2 (091e20e, 2023-11-25)"
   inkscape:export-filename="M1_Text_Bottom_White.png"
   inkscape:export-xdpi="96"
   inkscape:export-ydpi="96"
   xml:space="preserve"
   xmlns:inkscape="http://www.inkscape.org/namespaces/inkscape"
   xmlns:sodipodi="http://sodipodi.sourceforge.net/DTD/sodipodi-0.dtd"
   xmlns="http://www.w3.org/2000/svg"
   xmlns:svg="http://www.w3.org/2000/svg"><defs
     id="defs1" /><sodipodi:namedview
     id="namedview1"
     pagecolor="#ffffff"
     bordercolor="#000000"
     borderopacity="0.25"
     inkscape:showpageshadow="2"
     inkscape:pageopacity="0.0"
     inkscape:pagecheckerboard="0"
     inkscape:deskcolor="#d1d1d1"
     showgrid="false"
     showguides="true"
     inkscape:zoom="0.125"
     inkscape:cx="2632"
     inkscape:cy="1956"
     inkscape:window-width="1920"
     inkscape:window-height="976"
     inkscape:window-x="0"
     inkscape:window-y="25"
     inkscape:window-maximized="0"
     inkscape:current-layer="g1"><sodipodi:guide
       position="2716.9285,5164.6005"
       orientation="1,0"
       id="guide10"
       inkscape:locked="false" /><sodipodi:guide
       position="1387.655,8093.2724"
       orientation="1,0"
       id="guide11"
       inkscape:locked="false" /><sodipodi:guide
       position="4046.2058,8093.5614"
       orientation="1,0"
       id="guide12"
       inkscape:locked="false" /><sodipodi:guide
       position="1103.448,5459.6591"
       orientation="0,-1"
       id="guide13"
       inkscape:locked="false" /></sodipodi:namedview><g
     inkscape:groupmode="layer"
     inkscape:label="Image"
     id="g1"
     transform="translate(-1130.1022,-2632.0509)"><g
       id="g18"
       inkscape:label="MACH ONE "
       transform="translate(-1468.8508,4806.3651)"><path
         id="text9"
         style="font-style:normal;font-variant:normal;font-weight:normal;font-stretch:normal;font-size:806.667px;line-height:0;font-family:'Akira Expanded';-inkscape-font-specification:'Akira Expanded, Normal';font-variant-ligatures:normal;font-variant-caps:normal;font-variant-numeric:normal;font-variant-east-asian:normal;letter-spacing:0px;word-spacing:0px;fill:#1a1a1a;stroke-width:1.4;stroke-linecap:round;stroke-linejoin:round;stroke-miterlimit:0;paint-order:markers stroke fill;fill-opacity:1"
         inkscape:label="M"
         d="M 2598.953 779.63502 L 2598.953 1309.01 L 2805.3456 1309.01 L 2805.3456 1026.5979 L 3012.1327 1309.01 L 3115.33 1309.01 L 3322.1171 1026.5979 L 3322.1171 1309.01 L 3528.5116 1309.01 L 3528.5116 779.63502 L 3270.5194 779.63502 L 3063.7323 1044.3225 L 2857.3378 779.63502 L 2598.953 779.63502 z M 4659.0956 779.63502 C 4469.7677 780.38632 4313.4966 835.23034 4314.2479 1026.0608 L 4314.2479 1062.8753 C 4313.4966 1254.0814 4469.7677 1308.9273 4659.0956 1309.303 C 4840.9104 1309.303 4990.4198 1258.2136 5002.8163 1087.6682 L 4801.0917 1087.6682 C 4783.0604 1137.2541 4726.7127 1149.2756 4659.0956 1149.2756 C 4578.7064 1148.1487 4510.3378 1133.1212 4511.4647 1050.8538 L 4511.4647 1038.4573 C 4510.3378 955.43852 4578.7064 941.16431 4659.0956 940.03736 C 4726.7127 940.03736 4782.6848 951.68196 4801.0917 1001.2678 L 5002.8163 1001.2678 C 4990.4198 831.09815 4840.9104 780.01067 4659.0956 779.63502 z M 5034.455 779.63502 L 5034.455 1309.01 L 5240.8475 1309.01 L 5240.8475 1128.219 L 5550.8319 1128.219 L 5550.8319 1309.01 L 5757.619 1309.01 L 5757.619 779.63502 L 5550.8319 779.63502 L 5550.8319 960.42603 L 5240.8475 960.42603 L 5240.8475 779.63502 L 5034.455 779.63502 z M 6658.5155 779.63502 L 6658.5155 1309.01 L 6864.91 1309.01 L 6864.91 985.63502 L 7149.2909 1309.01 L 7381.6796 1309.01 L 7381.6796 779.63502 L 7174.8925 779.63502 L 7174.8925 1060.0784 L 6942.5038 779.63502 L 6658.5155 779.63502 z M 3844.0585 779.63697 L 3560.0702 1309.012 L 3792.4608 1309.012 L 3834.2108 1218.4202 L 4099.2928 1218.4202 L 4141.0448 1309.012 L 4373.4335 1309.012 L 4089.4452 779.63697 L 3844.0585 779.63697 z M 6282.4784 779.63697 C 6092.3992 780.01262 5936.8794 834.8586 5937.6307 1026.0647 L 5937.6307 1062.8772 C 5936.8794 1253.7077 6092.3992 1308.9293 6282.4784 1309.3049 C 6472.1819 1308.9293 6627.7023 1253.7077 6626.951 1062.8772 L 6626.951 1026.0647 C 6626.951 835.23425 6472.5575 779.63697 6282.4784 779.63697 z M 7413.2382 779.63697 L 7413.2382 1309.012 L 8032.8124 1309.012 L 8032.8124 1173.1233 L 7619.6327 1173.1233 L 7619.6327 1105.3753 L 8032.8124 1105.3753 L 8032.8124 982.87916 L 7619.6327 982.87916 L 7619.6327 915.13111 L 8032.8124 915.13111 L 8032.8124 779.63697 L 7413.2382 779.63697 z M 3966.9491 932.85572 L 4039.4237 1089.2268 L 3894.0819 1089.2268 L 3966.9491 932.85572 z M 6282.4784 939.66432 C 6362.8676 940.79127 6431.2362 955.81678 6430.1092 1038.0842 L 6430.1092 1050.4807 C 6431.2362 1133.1238 6362.8676 1148.1506 6282.4784 1149.2776 C 6201.7135 1148.1506 6133.3456 1133.1238 6134.4725 1050.4807 L 6134.4725 1038.0842 C 6133.3456 955.81678 6201.7135 940.79127 6282.4784 939.66432 z " /><path
         style="font-size:242.667px;line-height:0;font-family:Sans;-inkscape-font-specification:'Sans, Normal';letter-spacing:422.59px;word-spacing:0px;fill:#1a1a1a;stroke-width:1.4;stroke-linecap:round;stroke-linejoin:round;stroke-miterlimit:0;paint-order:markers stroke fill"
         d="m 2748.5055,1506.4399 h -63.0366 v 155.5771 h -23.4609 v -155.5771 h -63.0366 v -20.8542 h 149.5341 z m 592.2673,155.5771 h -30.4519 l -59.0079,-70.146 h -33.0586 v 70.146 h -23.461 v -176.4313 h 49.4102 q 15.9962,0 26.6602,2.1328 10.6641,2.0144 19.1954,7.3464 9.5976,6.043 14.9297,15.2852 5.4505,9.1237 5.4505,23.224 0,19.0768 -9.5977,31.9922 -9.5976,12.7969 -26.4232,19.3138 z m -54.8608,-126.7841 q 0,-7.5833 -2.7252,-13.3893 -2.6068,-5.9245 -8.7683,-9.9531 -5.095,-3.4362 -12.0859,-4.7396 -6.9909,-1.4219 -16.4701,-1.4219 h -27.6081 v 66.5912 h 23.6979 q 11.1381,0 19.4323,-1.8958 8.2943,-2.0143 14.1003,-7.3464 5.3321,-4.9765 7.8204,-11.375 2.6067,-6.5169 2.6067,-16.4701 z m 639.3078,126.7841 h -25.0013 l -17.2995,-49.1733 h -76.3074 l -17.2995,49.1733 h -23.8164 l 64.2214,-176.4313 h 31.2813 z m -49.5287,-69.3165 -30.9258,-86.616 -31.0443,86.616 z m 633.5017,69.3165 h -29.03 l -83.6537,-157.8284 v 157.8284 h -21.9206 v -176.4313 h 36.3763 l 76.3074,144.0836 v -144.0836 h 21.9206 z m 597.7179,-50.3582 q 0,10.3086 -4.8581,20.3803 -4.7396,10.0716 -13.3893,17.0625 -9.4792,7.5833 -22.1576,11.849 -12.5599,4.2656 -30.3334,4.2656 -19.0768,0 -34.362,-3.5547 -15.1667,-3.5547 -30.9258,-10.5456 v -29.3854 h 1.6588 q 13.3894,11.138 30.9258,17.181 17.5365,6.0429 32.9402,6.0429 21.8021,0 33.8881,-8.1757 12.2044,-8.1758 12.2044,-21.8022 0,-11.7304 -5.806,-17.2995 -5.6875,-5.569 -17.418,-8.6497 -8.8867,-2.3698 -19.3138,-3.9102 -10.3086,-1.5403 -21.9206,-3.9101 -23.461,-4.9766 -34.836,-16.9441 -11.2565,-12.0859 -11.2565,-31.3998 0,-22.1575 18.7214,-36.2578 18.7213,-14.2188 47.5143,-14.2188 18.6029,0 34.1251,3.5547 15.5221,3.5547 27.4896,8.7682 v 27.7266 h -1.6588 q -10.0717,-8.5312 -26.5418,-14.1002 -16.3515,-5.6875 -33.5325,-5.6875 -18.8399,0 -30.3334,7.8203 -11.375,7.8203 -11.375,20.1432 0,11.0196 5.6875,17.2995 5.6875,6.28 20.0247,9.5977 7.5834,1.6589 21.5652,4.0287 13.9818,2.3698 23.6979,4.858 19.6693,5.2136 29.6225,15.7592 9.9531,10.5456 9.9531,29.5039 z m 575.6787,-72.7527 q 0,11.7305 -4.1472,21.8021 -4.0286,9.9532 -11.375,17.2995 -9.1237,9.1237 -21.5651,13.7448 -12.4414,4.5027 -31.3998,4.5027 h -23.461 v 65.7618 h -23.4609 v -176.4313 h 47.8698 q 15.8777,0 26.8972,2.7253 11.0196,2.6068 19.5508,8.2943 10.0716,6.7539 15.5222,16.8255 5.569,10.0717 5.569,25.4753 z m -24.4089,0.5925 q 0,-9.1237 -3.1992,-15.8777 -3.1992,-6.7539 -9.7162,-11.0195 -5.6875,-3.6732 -13.0339,-5.2136 -7.2278,-1.6588 -18.3659,-1.6588 h -23.224 v 70.5014 h 19.7878 q 14.2188,0 23.1055,-2.4883 8.8868,-2.6068 14.4558,-8.1758 5.569,-5.6875 7.8203,-11.9675 2.3698,-6.2799 2.3698,-14.1002 z m 609.4483,-33.6511 q 10.7826,11.849 16.4701,29.03 5.806,17.181 5.806,38.9831 0,21.8021 -5.9245,39.1016 -5.806,17.181 -16.3516,28.6745 -10.9011,11.9675 -25.8308,18.0105 -14.8112,6.043 -33.888,6.043 -18.6029,0 -33.8881,-6.1615 -15.1667,-6.1615 -25.8308,-17.892 -10.664,-11.7305 -16.47,-28.793 -5.6876,-17.0625 -5.6876,-38.9831 0,-21.5651 5.6876,-38.6277 5.6875,-17.181 16.5885,-29.3854 10.4271,-11.612 25.8308,-17.7735 15.5221,-6.1615 33.7696,-6.1615 18.9583,0 34.0065,6.28 15.1667,6.1615 25.7123,17.655 z m -2.1328,68.0131 q 0,-34.362 -15.4037,-52.9649 -15.4037,-18.7214 -42.0638,-18.7214 -26.8972,0 -42.3009,18.7214 -15.2852,18.6029 -15.2852,52.9649 0,34.7175 15.6407,53.2019 15.6406,18.3659 41.9454,18.3659 26.3047,0 41.8268,-18.3659 15.6407,-18.4844 15.6407,-53.2019 z m 630.1843,88.1564 h -30.4519 l -59.0079,-70.146 h -33.0586 v 70.146 h -23.461 v -176.4313 h 49.4102 q 15.9961,0 26.6602,2.1328 10.6641,2.0144 19.1953,7.3464 9.5977,6.043 14.9297,15.2852 5.4506,9.1237 5.4506,23.224 0,19.0768 -9.5977,31.9922 -9.5977,12.7969 -26.4232,19.3138 z m -54.8608,-126.7841 q 0,-7.5833 -2.7253,-13.3893 -2.6067,-5.9245 -8.7682,-9.9531 -5.0951,-3.4362 -12.086,-4.7396 -6.9909,-1.4219 -16.47,-1.4219 h -27.6081 v 66.5912 h 23.6979 q 11.138,0 19.4323,-1.8958 8.2943,-2.0143 14.1003,-7.3464 5.332,-4.9765 7.8203,-11.375 2.6068,-6.5169 2.6068,-16.4701 z m 618.9275,-28.793 h -63.0366 v 155.5771 h -23.461 v -155.5771 h -63.0365 v -20.8542 h 149.5341 z m 573.0719,105.2189 q 0,10.3086 -4.8581,20.3803 -4.7396,10.0716 -13.3893,17.0625 -9.4792,7.5833 -22.1576,11.849 -12.5599,4.2656 -30.3334,4.2656 -19.0768,0 -34.362,-3.5547 -15.1667,-3.5547 -30.9258,-10.5456 v -29.3854 h 1.6588 q 13.3894,11.138 30.9258,17.181 17.5365,6.0429 32.9402,6.0429 21.8021,0 33.8881,-8.1757 12.2044,-8.1758 12.2044,-21.8022 0,-11.7304 -5.806,-17.2995 -5.6875,-5.569 -17.418,-8.6497 -8.8867,-2.3698 -19.3138,-3.9102 -10.3086,-1.5403 -21.9206,-3.9101 -23.461,-4.9766 -34.836,-16.9441 -11.2565,-12.0859 -11.2565,-31.3998 0,-22.1575 18.7214,-36.2578 18.7213,-14.2188 47.5143,-14.2188 18.6029,0 34.1251,3.5547 15.5221,3.5547 27.4896,8.7682 v 27.7266 h -1.6588 q -10.0717,-8.5312 -26.5417,-14.1002 -16.3516,-5.6875 -33.5326,-5.6875 -18.8399,0 -30.3334,7.8203 -11.375,7.8203 -11.375,20.1432 0,11.0196 5.6875,17.2995 5.6875,6.28 20.0247,9.5977 7.5834,1.6589 21.5652,4.0287 13.9818,2.3698 23.6979,4.858 19.6693,5.2136 29.6225,15.7592 9.9531,10.5456 9.9531,29.5039 z"
         id="text19"
         inkscape:label="Transports"
         transform="translate(-0.0078125,0.12890625)"
         aria-label="TRANSPORTS" /></g><g
       id="g2"
       transform="matrix(1.2494313,0,0,1.2494313,-693.66265,-771.71072)"
       style="display:inline;stroke-width:0.800364"
       inkscape:label="Logo"><path
         id="path4"
         style="display:inline;fill:none;fill-opacity:1;stroke:#1a1a1a;stroke-width:9.60437;stroke-linecap:round;stroke-linejoin:round;stroke-miterlimit:0;stroke-dasharray:none;stroke-opacity:1;paint-order:markers stroke fill"
         inkscape:label="circulo"
         d="m 3634.2069,2729.0509 a 1059.1046,1059.1046 0 0 0 -1059.1047,1059.1046 1059.1046,1059.1046 0 0 0 36.9839,271.0816 c 90.7636,-145.8446 531.5476,-762.9441 1490.6497,-752.8048 153.7178,1.6251 320.7767,19.4668 501.7477,57.9414 a 1059.1046,1059.1046 0 0 0 -970.2766,-635.3228 z m 993.4331,692.5645 c -87.6572,-2.0522 -777.7986,-2.2556 -1075.0976,488.5868 -300.3477,495.8761 325.8418,850.424 396.0273,888.179 A 1059.1046,1059.1046 0 0 0 4693.3113,3788.1555 1059.1046,1059.1046 0 0 0 4627.64,3421.6154 Z M 2868.0744,4516.0045 a 1059.1046,1059.1046 0 0 0 124.1458,111.1849 C 2923.8267,3568.2106 4251.2709,3392.0949 4251.2709,3392.0949 2978.0847,3458.6305 2876.2626,4369.1451 2868.0744,4516.0045 Z M 4102.7358,3306.4323 c -959.103,-10.1393 -1399.886,606.96 -1490.6497,752.8048 a 1059.1046,1059.1046 0 0 0 255.9883,456.7674 c 8.1882,-146.8595 110.009,-1057.3739 1383.1965,-1123.9096 0,0 -1327.4443,176.1147 -1259.0507,1235.0945 a 1059.1046,1059.1046 0 0 0 641.9867,220.0706 1059.1046,1059.1046 0 0 0 314.3628,-48.8788 c -70.1855,-37.7552 -696.3753,-392.3024 -396.0273,-888.179 297.2993,-490.8429 987.4402,-490.639 1075.0976,-488.5868 a 1059.1046,1059.1046 0 0 0 -23.1565,-57.2417 c -180.9711,-38.4747 -348.0297,-56.3163 -501.7477,-57.9414 z" /><path
         id="circle53-5"
         style="display:none;fill:#ffffff;fill-opacity:1;stroke-width:1.12051;stroke-linecap:round;stroke-linejoin:round;stroke-miterlimit:0;paint-order:markers stroke fill"
         d="m 4102.7358,3306.4323 c -959.103,-10.1393 -1399.886,606.96 -1490.6497,752.8048 a 1059.1046,1059.1046 0 0 0 255.9883,456.7674 c 8.1882,-146.8595 110.009,-1057.3739 1383.1965,-1123.9096 0,0 -1327.4443,176.1147 -1259.0507,1235.0945 a 1059.1046,1059.1046 0 0 0 641.9867,220.0706 1059.1046,1059.1046 0 0 0 314.3628,-48.8788 c -70.1855,-37.7552 -696.3753,-392.3024 -396.0273,-888.179 297.2993,-490.8429 987.4402,-490.639 1075.0976,-488.5868 a 1059.1046,1059.1046 0 0 0 -23.1565,-57.2417 c -180.9711,-38.4747 -348.0297,-56.3163 -501.7477,-57.9414 z"
         inkscape:label="Carretera Original" /><path
         style="display:inline;fill:#1a1a1a;fill-opacity:1;stroke-width:1.12051;stroke-linecap:round;stroke-linejoin:round;stroke-miterlimit:0;paint-order:markers stroke fill"
         d="m 2868.0744,4516.0045 a 1059.1046,1059.1046 0 0 0 124.1458,111.1849 C 2923.8267,3568.2106 4251.2709,3392.0949 4251.2709,3392.0949 2978.0847,3458.6305 2876.2626,4369.1451 2868.0744,4516.0045 Z"
         id="path76-3"
         inkscape:label="raya camino" /><path
         style="display:inline;fill:#1a1a1a;fill-opacity:1;stroke-width:1.12051;stroke-linecap:round;stroke-linejoin:round;stroke-miterlimit:0;paint-order:markers stroke fill"
         d="m 4627.64,3421.6154 c -87.6572,-2.0522 -777.7986,-2.2556 -1075.0976,488.5868 -300.3477,495.8761 325.8418,850.424 396.0273,888.179 A 1059.1046,1059.1046 0 0 0 4693.3113,3788.1555 1059.1046,1059.1046 0 0 0 4627.64,3421.6154 Z"
         id="path56-5"
         inkscape:label="parte negra" /><path
         style="display:inline;fill:#1a1a1a;fill-opacity:1;stroke-width:1.12051;stroke-linecap:round;stroke-linejoin:round;stroke-miterlimit:0;paint-order:markers stroke fill"
         d="m 3634.2069,2729.0509 a 1059.1046,1059.1046 0 0 0 -1059.1047,1059.1046 1059.1046,1059.1046 0 0 0 36.9839,271.0816 c 90.7636,-145.8446 531.5476,-762.9441 1490.6497,-752.8048 153.7178,1.6251 320.7767,19.4668 501.7477,57.9414 a 1059.1046,1059.1046 0 0 0 -970.2766,-635.3228 z"
         id="circle55-4"
         inkscape:label="camino azul" /></g></g></svg>
