<?xml version="1.0" encoding="UTF-8" standalone="no"?>
<!-- Created with Inkscape (http://www.inkscape.org/) -->

<svg
   version="1.1"
   id="svg1"
   width="7787.4233"
   height="2118.209"
   viewBox="0 0 7787.4233 2118.209"
   sodipodi:docname="Mach-One-Logo_TEXT-SIDE_FULL-COLOR.svg"
   inkscape:version="1.3.2 (091e20e, 2023-11-25)"
   inkscape:export-filename="M1_icon.png"
   inkscape:export-xdpi="96"
   inkscape:export-ydpi="96"
   xml:space="preserve"
   xmlns:inkscape="http://www.inkscape.org/namespaces/inkscape"
   xmlns:sodipodi="http://sodipodi.sourceforge.net/DTD/sodipodi-0.dtd"
   xmlns="http://www.w3.org/2000/svg"
   xmlns:svg="http://www.w3.org/2000/svg"><defs
     id="defs1" /><sodipodi:namedview
     id="namedview1"
     pagecolor="#ffffff"
     bordercolor="#000000"
     borderopacity="0.25"
     inkscape:showpageshadow="2"
     inkscape:pageopacity="0.0"
     inkscape:pagecheckerboard="0"
     inkscape:deskcolor="#d1d1d1"
     showgrid="false"
     showguides="true"
     inkscape:zoom="0.0625"
     inkscape:cx="4528"
     inkscape:cy="-1672"
     inkscape:window-width="1920"
     inkscape:window-height="976"
     inkscape:window-x="0"
     inkscape:window-y="25"
     inkscape:window-maximized="0"
     inkscape:current-layer="g1"><sodipodi:guide
       position="-0.0022267525,1501.6992"
       orientation="1,0"
       id="guide1"
       inkscape:locked="false" /><sodipodi:guide
       position="2118.2048,1499.2149"
       orientation="1,0"
       id="guide2"
       inkscape:locked="false" /><sodipodi:guide
       position="1063.6852,2561.2031"
       orientation="0,-1"
       id="guide3"
       inkscape:locked="false" /><sodipodi:guide
       position="1059.5095,443.33202"
       orientation="0,-1"
       id="guide4"
       inkscape:locked="false" /><sodipodi:guide
       position="145.93137,1855.2461"
       orientation="0,-1"
       id="guide5"
       inkscape:locked="false" /><sodipodi:guide
       position="-77.455347,1149.2891"
       orientation="0,-1"
       id="guide6"
       inkscape:locked="false" /><sodipodi:guide
       position="-45.392847,2031.7344"
       orientation="0,1"
       id="guide7"
       inkscape:locked="false"
       inkscape:label=""
       inkscape:color="rgb(38,162,105)" /><sodipodi:guide
       position="-67.627227,1502.2735"
       orientation="0,1"
       id="guide8"
       inkscape:locked="false"
       inkscape:label=""
       inkscape:color="rgb(38,162,105)" /><sodipodi:guide
       position="-75.920197,972.81249"
       orientation="0,1"
       id="guide9"
       inkscape:locked="false"
       inkscape:label=""
       inkscape:color="rgb(38,162,105)" /><sodipodi:guide
       position="2353.5602,2561.707"
       orientation="1,0"
       id="guide19"
       inkscape:locked="false" /><sodipodi:guide
       position="7816.2829,1502.4375"
       orientation="1,0"
       id="guide20"
       inkscape:locked="false" /></sodipodi:namedview><g
     inkscape:groupmode="layer"
     inkscape:label="Image"
     id="g1"
     transform="translate(-216.53859,-250.16331)"><g
       id="g18"
       inkscape:label="MACH ONE "
       transform="translate(-28.850753,86.365137)"><path
         id="text9"
         style="font-style:normal;font-variant:normal;font-weight:normal;font-stretch:normal;font-size:806.667px;line-height:0;font-family:'Akira Expanded';-inkscape-font-specification:'Akira Expanded, Normal';font-variant-ligatures:normal;font-variant-caps:normal;font-variant-numeric:normal;font-variant-east-asian:normal;letter-spacing:0px;word-spacing:0px;fill:#1a1a1a;stroke-width:1.4;stroke-linecap:round;stroke-linejoin:round;stroke-miterlimit:0;paint-order:markers stroke fill;fill-opacity:1"
         inkscape:label="M"
         d="M 4659.0964 779.63411 C 4469.7685 780.38541 4313.4974 835.23139 4314.2487 1026.0618 L 4314.2487 1062.8743 C 4313.4974 1254.0805 4469.7685 1308.9264 4659.0964 1309.3021 C 4840.9112 1309.3021 4990.4206 1258.2126 5002.8171 1087.6673 L 4801.0925 1087.6673 C 4783.0612 1137.2532 4726.7135 1149.2747 4659.0964 1149.2747 C 4578.7072 1148.1478 4510.3386 1133.1223 4511.4655 1050.8548 L 4511.4655 1038.4583 C 4510.3386 955.43957 4578.7072 941.16341 4659.0964 940.03645 C 4726.7135 940.03645 4782.6856 951.68301 4801.0925 1001.2689 L 5002.8171 1001.2689 C 4990.4206 831.0992 4840.9112 780.00976 4659.0964 779.63411 z M 5034.4538 779.63411 L 5034.4538 1309.0091 L 5240.8483 1309.0091 L 5240.8483 1128.2181 L 5550.8307 1128.2181 L 5550.8307 1309.0091 L 5757.6179 1309.0091 L 5757.6179 779.63411 L 5550.8307 779.63411 L 5550.8307 960.42513 L 5240.8483 960.42513 L 5240.8483 779.63411 L 5034.4538 779.63411 z M 6658.5163 779.63411 L 6658.5163 1309.0111 L 6864.9089 1309.0111 L 6864.9089 985.63411 L 7149.2917 1309.0111 L 7381.6804 1309.0111 L 7381.6804 779.63411 L 7174.8932 779.63411 L 7174.8932 1060.0775 L 6942.5026 779.63411 L 6658.5163 779.63411 z M 2598.9538 779.63606 L 2598.9538 1309.0111 L 2805.3464 1309.0111 L 2805.3464 1026.599 L 3012.1335 1309.0111 L 3115.3307 1309.0111 L 3322.1179 1026.599 L 3322.1179 1309.0111 L 3528.5104 1309.0111 L 3528.5104 779.63606 L 3270.5182 779.63606 L 3063.7311 1044.3236 L 2857.3386 779.63606 L 2598.9538 779.63606 z M 3844.0573 779.63606 L 3560.071 1309.013 L 3792.4597 1309.013 L 3834.2116 1218.4193 L 4099.2936 1218.4193 L 4141.0436 1309.013 L 4373.4343 1309.013 L 4089.446 779.63606 L 3844.0573 779.63606 z M 7413.239 779.63606 L 7413.239 1309.0111 L 8032.8132 1309.0111 L 8032.8132 1173.1224 L 7619.6315 1173.1224 L 7619.6315 1105.3763 L 8032.8132 1105.3763 L 8032.8132 982.87825 L 7619.6315 982.87825 L 7619.6315 915.13216 L 8032.8132 915.13216 L 8032.8132 779.63606 L 7413.239 779.63606 z M 6282.4792 779.63802 C 6092.4 780.01367 5936.8802 834.85769 5937.6315 1026.0638 L 5937.6315 1062.8783 C 5936.8802 1253.7087 6092.4 1308.9284 6282.4792 1309.304 C 6472.1827 1308.9284 6627.7012 1253.7087 6626.9499 1062.8783 L 6626.9499 1026.0638 C 6626.9499 835.23334 6472.5583 779.63802 6282.4792 779.63802 z M 3966.9479 932.85677 L 4039.4225 1089.2279 L 3894.0807 1089.2279 L 3966.9479 932.85677 z M 6282.4792 939.66536 C 6362.8684 940.79231 6431.237 955.81782 6430.11 1038.0853 L 6430.11 1050.4818 C 6431.237 1133.1249 6362.8684 1148.1517 6282.4792 1149.2786 C 6201.7143 1148.1517 6133.3444 1133.1249 6134.4714 1050.4818 L 6134.4714 1038.0853 C 6133.3444 955.81782 6201.7143 940.79231 6282.4792 939.66536 z " /><path
         style="font-size:242.667px;line-height:0;font-family:Sans;-inkscape-font-specification:'Sans, Normal';letter-spacing:422.59px;word-spacing:0px;fill:#1a1a1a;stroke-width:1.4;stroke-linecap:round;stroke-linejoin:round;stroke-miterlimit:0;paint-order:markers stroke fill"
         d="m 2748.4955,1506.4399 h -63.0366 v 155.5771 h -23.4609 v -155.5771 h -63.0366 v -20.8542 h 149.5341 z m 592.2673,155.5771 h -30.4519 l -59.0079,-70.146 h -33.0586 v 70.146 h -23.461 v -176.4313 h 49.4102 q 15.9961,0 26.6602,2.1328 10.6641,2.0144 19.1954,7.3464 9.5976,6.043 14.9297,15.2852 5.4505,9.1237 5.4505,23.224 0,19.0768 -9.5977,31.9922 -9.5976,12.7969 -26.4232,19.3138 z m -54.8608,-126.7841 q 0,-7.5833 -2.7252,-13.3893 -2.6068,-5.9245 -8.7683,-9.9531 -5.095,-3.4362 -12.0859,-4.7396 -6.9909,-1.4219 -16.4701,-1.4219 h -27.6081 v 66.5912 h 23.6979 q 11.1381,0 19.4323,-1.8958 8.2943,-2.0143 14.1003,-7.3464 5.3321,-4.9765 7.8203,-11.375 2.6068,-6.5169 2.6068,-16.4701 z m 639.3078,126.7841 h -25.0013 l -17.2995,-49.1733 h -76.3074 l -17.2995,49.1733 h -23.8165 l 64.2215,-176.4313 h 31.2813 z m -49.5287,-69.3165 -30.9258,-86.616 -31.0443,86.616 z m 633.5017,69.3165 h -29.03 l -83.6538,-157.8284 v 157.8284 h -21.9206 v -176.4313 h 36.3764 l 76.3074,144.0836 v -144.0836 h 21.9206 z m 597.7179,-50.3582 q 0,10.3086 -4.8581,20.3803 -4.7396,10.0716 -13.3893,17.0625 -9.4792,7.5833 -22.1576,11.849 -12.5599,4.2656 -30.3334,4.2656 -19.0768,0 -34.362,-3.5547 -15.1667,-3.5547 -30.9258,-10.5456 v -29.3854 h 1.6588 q 13.3894,11.138 30.9258,17.181 17.5365,6.0429 32.9402,6.0429 21.8021,0 33.8881,-8.1757 12.2044,-8.1758 12.2044,-21.8022 0,-11.7304 -5.806,-17.2995 -5.6875,-5.569 -17.418,-8.6497 -8.8867,-2.3698 -19.3138,-3.9102 -10.3086,-1.5403 -21.9206,-3.9101 -23.461,-4.9766 -34.836,-16.9441 -11.2565,-12.0859 -11.2565,-31.3998 0,-22.1575 18.7213,-36.2578 18.7214,-14.2188 47.5144,-14.2188 18.6029,0 34.1251,3.5547 15.5221,3.5547 27.4896,8.7682 v 27.7266 h -1.6589 q -10.0716,-8.5312 -26.5417,-14.1002 -16.3515,-5.6875 -33.5326,-5.6875 -18.8398,0 -30.3333,7.8203 -11.3751,7.8203 -11.3751,20.1432 0,11.0196 5.6876,17.2995 5.6875,6.28 20.0247,9.5977 7.5834,1.6589 21.5652,4.0287 13.9817,2.3698 23.6979,4.858 19.6693,5.2136 29.6224,15.7592 9.9532,10.5456 9.9532,29.5039 z m 575.6787,-72.7527 q 0,11.7305 -4.1472,21.8021 -4.0286,9.9532 -11.375,17.2995 -9.1237,9.1237 -21.5651,13.7448 -12.4414,4.5027 -31.3998,4.5027 h -23.461 v 65.7618 h -23.4609 v -176.4313 h 47.8698 q 15.8776,0 26.8972,2.7253 11.0195,2.6068 19.5508,8.2943 10.0716,6.7539 15.5222,16.8255 5.569,10.0717 5.569,25.4753 z m -24.4089,0.5925 q 0,-9.1237 -3.1992,-15.8777 -3.1993,-6.7539 -9.7162,-11.0195 -5.6875,-3.6732 -13.0339,-5.2136 -7.2278,-1.6588 -18.3659,-1.6588 h -23.224 v 70.5014 h 19.7878 q 14.2188,0 23.1055,-2.4883 8.8868,-2.6068 14.4558,-8.1758 5.569,-5.6875 7.8203,-11.9675 2.3698,-6.2799 2.3698,-14.1002 z m 609.4483,-33.6511 q 10.7826,11.849 16.4701,29.03 5.806,17.181 5.806,38.9831 0,21.8021 -5.9245,39.1016 -5.806,17.181 -16.3516,28.6745 -10.9011,11.9675 -25.8308,18.0105 -14.8112,6.043 -33.888,6.043 -18.6029,0 -33.8881,-6.1615 -15.1667,-6.1615 -25.8308,-17.892 -10.6641,-11.7305 -16.4701,-28.793 -5.6875,-17.0625 -5.6875,-38.9831 0,-21.5651 5.6875,-38.6277 5.6876,-17.181 16.5886,-29.3854 10.4271,-11.612 25.8308,-17.7735 15.5221,-6.1615 33.7696,-6.1615 18.9583,0 34.0065,6.28 15.1667,6.1615 25.7123,17.655 z m -2.1328,68.0131 q 0,-34.362 -15.4037,-52.9649 -15.4037,-18.7214 -42.0639,-18.7214 -26.8971,0 -42.3008,18.7214 -15.2852,18.6029 -15.2852,52.9649 0,34.7175 15.6407,53.2019 15.6406,18.3659 41.9453,18.3659 26.3048,0 41.8269,-18.3659 15.6407,-18.4844 15.6407,-53.2019 z m 630.184,88.1564 h -30.4519 l -59.0079,-70.146 h -33.0586 v 70.146 h -23.461 v -176.4313 h 49.4103 q 15.9961,0 26.6601,2.1328 10.6641,2.0144 19.1954,7.3464 9.5977,6.043 14.9297,15.2852 5.4505,9.1237 5.4505,23.224 0,19.0768 -9.5976,31.9922 -9.5977,12.7969 -26.4233,19.3138 z m -54.8608,-126.7841 q 0,-7.5833 -2.7252,-13.3893 -2.6068,-5.9245 -8.7683,-9.9531 -5.095,-3.4362 -12.0859,-4.7396 -6.9909,-1.4219 -16.4701,-1.4219 h -27.6081 v 66.5912 h 23.6979 q 11.1381,0 19.4324,-1.8958 8.2942,-2.0143 14.1002,-7.3464 5.3321,-4.9765 7.8204,-11.375 2.6067,-6.5169 2.6067,-16.4701 z m 618.9275,-28.793 h -63.0365 v 155.5771 h -23.461 v -155.5771 h -63.0366 v -20.8542 h 149.5341 z m 573.0719,105.2189 q 0,10.3086 -4.858,20.3803 -4.7396,10.0716 -13.3894,17.0625 -9.4792,7.5833 -22.1576,11.849 -12.5599,4.2656 -30.3333,4.2656 -19.0769,0 -34.3621,-3.5547 -15.1667,-3.5547 -30.9258,-10.5456 v -29.3854 h 1.6589 q 13.3893,11.138 30.9258,17.181 17.5365,6.0429 32.9401,6.0429 21.8022,0 33.8881,-8.1757 12.2045,-8.1758 12.2045,-21.8022 0,-11.7304 -5.806,-17.2995 -5.6875,-5.569 -17.418,-8.6497 -8.8868,-2.3698 -19.3139,-3.9102 -10.3086,-1.5403 -21.9206,-3.9101 -23.4609,-4.9766 -34.836,-16.9441 -11.2565,-12.0859 -11.2565,-31.3998 0,-22.1575 18.7214,-36.2578 18.7214,-14.2188 47.5144,-14.2188 18.6029,0 34.125,3.5547 15.5222,3.5547 27.4897,8.7682 v 27.7266 h -1.6589 q -10.0716,-8.5312 -26.5417,-14.1002 -16.3516,-5.6875 -33.5326,-5.6875 -18.8399,0 -30.3334,7.8203 -11.375,7.8203 -11.375,20.1432 0,11.0196 5.6875,17.2995 5.6875,6.28 20.0248,9.5977 7.5833,1.6589 21.5651,4.0287 13.9818,2.3698 23.698,4.858 19.6693,5.2136 29.6224,15.7592 9.9531,10.5456 9.9531,29.5039 z"
         id="text19"
         inkscape:label="Transport"
         transform="translate(-0.0078125,0.12890625)"
         aria-label="TRANSPORTS" /></g><g
       id="g2"
       style="display:inline"
       inkscape:label="Logo"><path
         id="path4"
         style="display:inline;fill:#1a1a1a;fill-opacity:1;stroke:#1a1a1a;stroke-width:12;stroke-linecap:round;stroke-linejoin:round;stroke-miterlimit:0;stroke-dasharray:none;stroke-opacity:1;paint-order:markers stroke fill"
         inkscape:label="circulo"
         d="M 1275.6392,256.16561 A 1053.0981,1053.0981 0 0 0 222.54101,1309.2638 a 1053.0981,1053.0981 0 0 0 36.77415,269.5443 c 90.24886,-145.0176 528.53306,-758.61742 1482.19594,-748.53558 152.8459,1.61585 318.9574,19.35635 498.902,57.61278 A 1053.0981,1053.0981 0 0 0 1275.6392,256.16561 Z m 987.7991,688.63674 c -87.1601,-2.0405 -773.3875,-2.24282 -1069.0005,485.81605 -298.64425,493.0638 323.994,845.601 393.7814,883.1419 A 1053.0981,1053.0981 0 0 0 2328.7371,1309.2638 1053.0981,1053.0981 0 0 0 2263.4383,944.80235 Z M 513.85169,2032.985 a 1053.0981,1053.0981 0 0 0 123.44174,110.5543 C 569.2878,1090.5662 1889.2037,915.44933 1889.2037,915.44933 623.23808,981.60756 521.99345,1886.9585 513.85169,2032.985 Z M 1741.5111,830.27252 C 787.84732,820.19068 349.56412,1433.7903 259.31516,1578.8081 a 1053.0981,1053.0981 0 0 0 254.53653,454.1769 c 8.14176,-146.0266 109.3851,-1051.37737 1375.35201,-1117.53567 0,0 -1319.91599,175.11587 -1251.91027,1228.08997 a 1053.0981,1053.0981 0 0 0 638.34577,218.8225 1053.0981,1053.0981 0 0 0 312.58,-48.6015 C 1518.4318,2276.2192 895.79325,1923.6827 1194.4378,1430.6184 1490.0511,942.55903 2176.278,942.76185 2263.4383,944.80235 a 1053.0981,1053.0981 0 0 0 -23.0252,-56.91705 c -179.9447,-38.25648 -346.0559,-55.99693 -498.902,-57.61278 z" /><path
         id="circle53-7"
         style="display:inline;fill:#ffffff;fill-opacity:1;stroke-width:1.4;stroke-linecap:round;stroke-linejoin:round;stroke-miterlimit:0;paint-order:markers stroke fill"
         d="M 1741.5111,830.27252 C 787.84732,820.19068 349.56412,1433.7903 259.31516,1578.8081 a 1053.0981,1053.0981 0 0 0 254.53653,454.1769 c 8.14176,-146.0266 109.3851,-1051.37737 1375.35201,-1117.53567 0,0 -1319.91599,175.11587 -1251.91027,1228.08997 a 1053.0981,1053.0981 0 0 0 638.34577,218.8225 1053.0981,1053.0981 0 0 0 312.58,-48.6015 C 1518.4318,2276.2192 895.79325,1923.6827 1194.4378,1430.6184 1490.0511,942.55903 2176.278,942.76185 2263.4383,944.80235 a 1053.0981,1053.0981 0 0 0 -23.0252,-56.91705 c -179.9447,-38.25648 -346.0559,-55.99693 -498.902,-57.61278 z"
         inkscape:label="Carretera Original" /><path
         style="display:inline;fill:#1a1a1a;fill-opacity:1;stroke-width:1.4;stroke-linecap:round;stroke-linejoin:round;stroke-miterlimit:0;paint-order:markers stroke fill"
         d="m 513.85169,2032.985 a 1053.0981,1053.0981 0 0 0 123.44174,110.5543 C 569.2878,1090.5662 1889.2037,915.44933 1889.2037,915.44933 623.23808,981.60756 521.99345,1886.9585 513.85169,2032.985 Z"
         id="path76-5"
         inkscape:label="raya camino" /><path
         style="display:inline;fill:#1a1a1a;fill-opacity:1;stroke-width:1.4;stroke-linecap:round;stroke-linejoin:round;stroke-miterlimit:0;paint-order:markers stroke fill"
         d="m 2263.4383,944.80235 c -87.1601,-2.0405 -773.3875,-2.24282 -1069.0005,485.81605 -298.64425,493.0638 323.994,845.601 393.7814,883.1419 a 1053.0981,1053.0981 0 0 0 740.5179,-1004.4965 1053.0981,1053.0981 0 0 0 -65.2988,-364.46145 z"
         id="path56-5"
         inkscape:label="parte negra" /><path
         style="display:inline;fill:#1d7dff;fill-opacity:1;stroke-width:1.4;stroke-linecap:round;stroke-linejoin:round;stroke-miterlimit:0;paint-order:markers stroke fill"
         d="M 1275.6392,256.16561 A 1053.0981,1053.0981 0 0 0 222.54101,1309.2638 a 1053.0981,1053.0981 0 0 0 36.77415,269.5443 c 90.24886,-145.0176 528.53306,-758.61742 1482.19594,-748.53558 152.8459,1.61585 318.9574,19.35635 498.902,57.61278 A 1053.0981,1053.0981 0 0 0 1275.6392,256.16561 Z"
         id="circle55-4"
         inkscape:label="camino azul" /></g></g></svg>
