<?xml version="1.0" encoding="UTF-8" standalone="no"?>
<!-- Created with Inkscape (http://www.inkscape.org/) -->

<svg
   version="1.1"
   id="svg1"
   width="4981.2637"
   height="4981.2637"
   viewBox="0 0 4981.2637 4981.2637"
   sodipodi:docname="M1_icon_MainColor.svg"
   inkscape:version="1.3.2 (091e20e, 2023-11-25)"
   inkscape:export-filename="M1_Icon_Black.png"
   inkscape:export-xdpi="96"
   inkscape:export-ydpi="96"
   xmlns:inkscape="http://www.inkscape.org/namespaces/inkscape"
   xmlns:sodipodi="http://sodipodi.sourceforge.net/DTD/sodipodi-0.dtd"
   xmlns="http://www.w3.org/2000/svg"
   xmlns:svg="http://www.w3.org/2000/svg">
  <defs
     id="defs1" />
  <sodipodi:namedview
     id="namedview1"
     pagecolor="#ffffff"
     bordercolor="#000000"
     borderopacity="0.25"
     inkscape:showpageshadow="2"
     inkscape:pageopacity="0.0"
     inkscape:pagecheckerboard="0"
     inkscape:deskcolor="#d1d1d1"
     showgrid="false"
     showguides="true"
     inkscape:zoom="0.088388348"
     inkscape:cx="984.29264"
     inkscape:cy="3716.5532"
     inkscape:window-width="1920"
     inkscape:window-height="976"
     inkscape:window-x="0"
     inkscape:window-y="25"
     inkscape:window-maximized="0"
     inkscape:current-layer="g1" />
  <g
     inkscape:groupmode="layer"
     inkscape:label="Image"
     id="g1"
     transform="translate(-6.891834,-6.575427)">
    <path
       id="path4"
       style="display:inline;fill:none;fill-opacity:1;stroke:#1d7dff;stroke-width:12;stroke-linecap:round;stroke-linejoin:round;stroke-miterlimit:0;stroke-dasharray:none;stroke-opacity:1;paint-order:markers stroke fill"
       inkscape:label="circulo"
       d="M 2497.5239,12.575427 A 2484.632,2484.632 0 0 0 12.891834,2497.2073 2484.632,2484.632 0 0 0 99.655016,3133.1577 C 312.58403,2791.0101 1346.652,1343.3106 3596.6806,1367.0972 c 360.618,3.8124 752.5338,45.6685 1177.0871,135.929 A 2484.632,2484.632 0 0 0 2497.5239,12.575427 Z M 4828.0923,1637.3137 c -205.6415,-4.8143 -1824.6954,-5.2916 -2522.1512,1146.212 -704.6079,1163.3125 764.4165,1995.0727 929.0698,2083.645 A 2484.632,2484.632 0 0 0 4982.1554,2497.2073 2484.632,2484.632 0 0 0 4828.0923,1637.3137 Z M 700.19692,4204.7222 a 2484.632,2484.632 0 0 0 291.24291,260.8369 C 830.9904,1981.2222 3945.1401,1568.0595 3945.1401,1568.0595 958.27824,1724.1503 719.40616,3860.1939 700.19692,4204.7222 Z M 3596.6806,1367.0972 C 1346.6497,1343.3106 312.58424,2791.0096 99.655016,3133.1577 A 2484.632,2484.632 0 0 0 700.19692,4204.7222 c 19.20924,-344.5286 258.07832,-2480.5718 3244.94318,-2636.6627 0,0 -3114.14987,413.1604 -2953.70027,2897.4996 a 2484.632,2484.632 0 0 0 1506.08407,516.28 2484.632,2484.632 0 0 0 737.487,-114.6684 C 3070.3576,4778.5979 1601.3325,3946.8394 2305.9411,2783.5257 3003.3976,1632.0209 4622.4503,1632.4994 4828.0923,1637.3137 a 2484.632,2484.632 0 0 0 -54.3246,-134.2875 c -424.5535,-90.2606 -816.4686,-132.1166 -1177.0871,-135.929 z" />
    <path
       id="circle53"
       style="display:inline;fill:#ffffff;fill-opacity:0;stroke-width:1.4;stroke-linecap:round;stroke-linejoin:round;stroke-miterlimit:0;paint-order:markers stroke fill"
       d="M 3596.6806,1367.0972 C 1346.6497,1343.3106 312.58424,2791.0096 99.655016,3133.1577 A 2484.632,2484.632 0 0 0 700.19692,4204.7222 c 19.20924,-344.5286 258.07832,-2480.5718 3244.94318,-2636.6627 0,0 -3114.14987,413.1604 -2953.70027,2897.4996 a 2484.632,2484.632 0 0 0 1506.08407,516.28 2484.632,2484.632 0 0 0 737.487,-114.6684 C 3070.3576,4778.5979 1601.3325,3946.8394 2305.9411,2783.5257 3003.3976,1632.0209 4622.4503,1632.4994 4828.0923,1637.3137 a 2484.632,2484.632 0 0 0 -54.3246,-134.2875 c -424.5535,-90.2606 -816.4686,-132.1166 -1177.0871,-135.929 z"
       inkscape:label="Carretera Original" />
    <path
       style="display:inline;fill:#1d7dff;fill-opacity:1;stroke-width:1.4;stroke-linecap:round;stroke-linejoin:round;stroke-miterlimit:0;paint-order:markers stroke fill"
       d="m 700.19692,4204.7222 a 2484.632,2484.632 0 0 0 291.24291,260.8369 C 830.9904,1981.2222 3945.1401,1568.0595 3945.1401,1568.0595 958.27824,1724.1503 719.40616,3860.1939 700.19692,4204.7222 Z"
       id="path76"
       inkscape:label="raya camino" />
    <path
       style="display:inline;fill:#1d7dff;fill-opacity:1;stroke-width:1.4;stroke-linecap:round;stroke-linejoin:round;stroke-miterlimit:0;paint-order:markers stroke fill"
       d="m 4828.0923,1637.3137 c -205.6415,-4.8143 -1824.6954,-5.2916 -2522.1512,1146.212 -704.6079,1163.3125 764.4165,1995.0727 929.0698,2083.645 A 2484.632,2484.632 0 0 0 4982.1554,2497.2073 2484.632,2484.632 0 0 0 4828.0923,1637.3137 Z"
       id="path56"
       inkscape:label="parte negra" />
    <path
       style="display:inline;fill:#1d7dff;fill-opacity:1;stroke-width:1.4;stroke-linecap:round;stroke-linejoin:round;stroke-miterlimit:0;paint-order:markers stroke fill"
       d="M 2497.5239,12.575427 A 2484.632,2484.632 0 0 0 12.891834,2497.2073 2484.632,2484.632 0 0 0 99.655016,3133.1577 C 312.58403,2791.0101 1346.652,1343.3106 3596.6806,1367.0972 c 360.618,3.8124 752.5338,45.6685 1177.0871,135.929 A 2484.632,2484.632 0 0 0 2497.5239,12.575427 Z"
       id="circle55"
       inkscape:label="camino azul" />
  </g>
</svg>
